M48
; DRILL file {KiCad (5.1.9)-1} date 05/15/21 15:16:16
; FORMAT={-:-/ absolute / inch / decimal}
; #@! TF.CreationDate,2021-05-15T15:16:16+02:00
; #@! TF.GenerationSoftware,Kicad,Pcbnew,(5.1.9)-1
; #@! TF.FileFunction,Plated,1,2,PTH
FMAT,2
INCH
T1C0.0157
T2C0.0295
T3C0.0315
T4C0.0394
T5C0.0630
%
G90
G05
T1
X1.9291Y-2.0866
X2.0079Y-1.8307
X2.0866Y-1.8307
X2.1654Y-1.8898
X2.2441Y-2.0866
X2.3228Y-2.4016
T2
X3.9961Y-1.8791
X3.9961Y-1.9291
X3.9961Y-1.9791
T3
X2.8937Y-1.726
X2.8937Y-2.126
X3.0906Y-1.726
X3.0906Y-2.126
X3.2874Y-1.726
X3.2874Y-2.126
X3.4843Y-1.726
X3.4843Y-2.126
T4
X2.989Y-2.874
X3.089Y-2.874
X3.189Y-2.874
X3.289Y-2.874
X3.389Y-2.874
X4.5669Y-1.8291
X4.5669Y-1.9291
X4.5669Y-2.0291
T5
X1.7323Y-2.874
X4.6457Y-2.874
T0
M30
