%TF.GenerationSoftware,KiCad,Pcbnew,(5.1.9)-1*%
%TF.CreationDate,2021-05-15T15:20:44+02:00*%
%TF.ProjectId,esp8266temp,65737038-3236-4367-9465-6d702e6b6963,rev?*%
%TF.SameCoordinates,Original*%
%TF.FileFunction,Copper,L1,Top*%
%TF.FilePolarity,Positive*%
%FSLAX46Y46*%
G04 Gerber Fmt 4.6, Leading zero omitted, Abs format (unit mm)*
G04 Created by KiCad (PCBNEW (5.1.9)-1) date 2021-05-15 15:20:44*
%MOMM*%
%LPD*%
G01*
G04 APERTURE LIST*
%TA.AperFunction,SMDPad,CuDef*%
%ADD10R,1.000000X2.000000*%
%TD*%
%TA.AperFunction,ComponentPad*%
%ADD11O,1.600000X1.600000*%
%TD*%
%TA.AperFunction,ComponentPad*%
%ADD12C,1.600000*%
%TD*%
%TA.AperFunction,ComponentPad*%
%ADD13R,1.500000X1.050000*%
%TD*%
%TA.AperFunction,ComponentPad*%
%ADD14O,1.500000X1.050000*%
%TD*%
%TA.AperFunction,ComponentPad*%
%ADD15O,1.700000X1.700000*%
%TD*%
%TA.AperFunction,ComponentPad*%
%ADD16R,1.700000X1.700000*%
%TD*%
%TA.AperFunction,ComponentPad*%
%ADD17C,3.000000*%
%TD*%
%TA.AperFunction,ViaPad*%
%ADD18C,0.800000*%
%TD*%
%TA.AperFunction,Conductor*%
%ADD19C,0.250000*%
%TD*%
G04 APERTURE END LIST*
D10*
%TO.P,U2,8*%
%TO.N,+3V3*%
X45000000Y-55300000D03*
%TO.P,U2,3*%
%TO.N,/TX*%
X53000000Y-42700000D03*
%TO.P,U2,4*%
%TO.N,/RX*%
X51000000Y-42700000D03*
%TO.P,U2,2*%
%TO.N,Net-(U2-Pad2)*%
X55000000Y-42700000D03*
%TO.P,U2,5*%
%TO.N,Net-(U2-Pad5)*%
X49000000Y-42700000D03*
%TO.P,U2,12*%
%TO.N,Net-(R4-Pad1)*%
X53000000Y-55300000D03*
%TO.P,U2,9*%
%TO.N,Net-(U2-Pad9)*%
X47000000Y-55300000D03*
%TO.P,U2,11*%
%TO.N,Net-(U2-Pad11)*%
X51000000Y-55300000D03*
%TO.P,U2,10*%
%TO.N,/OneWire*%
X49000000Y-55300000D03*
%TO.P,U2,13*%
%TO.N,Net-(U2-Pad13)*%
X55000000Y-55300000D03*
%TO.P,U2,14*%
%TO.N,/Boot*%
X57000000Y-55300000D03*
%TO.P,U2,1*%
%TO.N,GND*%
X57000000Y-42700000D03*
%TO.P,U2,6*%
%TO.N,/Reset*%
X47000000Y-42700000D03*
%TD*%
D11*
%TO.P,R3,2*%
%TO.N,/Boot*%
X83500000Y-43840000D03*
D12*
%TO.P,R3,1*%
%TO.N,+3V3*%
X83500000Y-54000000D03*
%TD*%
D13*
%TO.P,U1,1*%
%TO.N,GND*%
X101500000Y-50270000D03*
D14*
%TO.P,U1,3*%
%TO.N,+3V3*%
X101500000Y-47730000D03*
%TO.P,U1,2*%
%TO.N,/OneWire*%
X101500000Y-49000000D03*
%TD*%
D11*
%TO.P,R4,2*%
%TO.N,GND*%
X88500000Y-54000000D03*
D12*
%TO.P,R4,1*%
%TO.N,Net-(R4-Pad1)*%
X88500000Y-43840000D03*
%TD*%
D11*
%TO.P,R2,2*%
%TO.N,/Reset*%
X78500000Y-43840000D03*
D12*
%TO.P,R2,1*%
%TO.N,+3V3*%
X78500000Y-54000000D03*
%TD*%
D11*
%TO.P,R1,2*%
%TO.N,/OneWire*%
X73500000Y-43840000D03*
D12*
%TO.P,R1,1*%
%TO.N,+3V3*%
X73500000Y-54000000D03*
%TD*%
D15*
%TO.P,J2,3*%
%TO.N,+3V3*%
X116000000Y-46460000D03*
%TO.P,J2,2*%
%TO.N,/OneWire*%
X116000000Y-49000000D03*
D16*
%TO.P,J2,1*%
%TO.N,GND*%
X116000000Y-51540000D03*
%TD*%
D15*
%TO.P,J1,5*%
%TO.N,/Boot*%
X86080000Y-73000000D03*
%TO.P,J1,4*%
%TO.N,/Reset*%
X83540000Y-73000000D03*
%TO.P,J1,3*%
%TO.N,/TX*%
X81000000Y-73000000D03*
%TO.P,J1,2*%
%TO.N,/RX*%
X78460000Y-73000000D03*
D16*
%TO.P,J1,1*%
%TO.N,GND*%
X75920000Y-73000000D03*
%TD*%
D17*
%TO.P,BT1,2*%
%TO.N,GND*%
X118000000Y-73000000D03*
%TO.P,BT1,1*%
%TO.N,+3V3*%
X44000000Y-73000000D03*
%TD*%
D18*
%TO.N,/Reset*%
X55000000Y-48000000D03*
%TO.N,/Boot*%
X57000000Y-53000000D03*
%TO.N,/TX*%
X53000000Y-46500000D03*
%TO.N,/RX*%
X51000000Y-46500000D03*
%TO.N,/OneWire*%
X49000000Y-53000000D03*
%TO.N,Net-(R4-Pad1)*%
X59000000Y-61000000D03*
%TD*%
D19*
%TO.N,/Reset*%
X48000000Y-48000000D02*
X55000000Y-48000000D01*
X47000000Y-47000000D02*
X48000000Y-48000000D01*
X47000000Y-42700000D02*
X47000000Y-47000000D01*
%TO.N,/Boot*%
X57000000Y-53000000D02*
X57000000Y-55300000D01*
%TO.N,/TX*%
X53000000Y-42700000D02*
X53000000Y-46500000D01*
%TO.N,/RX*%
X51000000Y-42700000D02*
X51000000Y-46500000D01*
%TO.N,/OneWire*%
X49000000Y-55300000D02*
X49000000Y-53000000D01*
X116000000Y-49000000D02*
X101500000Y-49000000D01*
X74500000Y-49000000D02*
X73500000Y-48000000D01*
X73500000Y-48000000D02*
X73500000Y-43840000D01*
X101500000Y-49000000D02*
X74500000Y-49000000D01*
%TO.N,Net-(R4-Pad1)*%
X54000000Y-61000000D02*
X59000000Y-61000000D01*
X53000000Y-60000000D02*
X54000000Y-61000000D01*
X53000000Y-55300000D02*
X53000000Y-60000000D01*
%TO.N,GND*%
X116000000Y-51540000D02*
X116000000Y-51500000D01*
X57000000Y-50500000D02*
X57000000Y-42700000D01*
X58000000Y-51500000D02*
X57000000Y-50500000D01*
X88500000Y-54000000D02*
X88500000Y-51500000D01*
X86000000Y-51500000D02*
X58000000Y-51500000D01*
X101500000Y-50270000D02*
X101500000Y-51500000D01*
X101500000Y-51500000D02*
X86000000Y-51500000D01*
X116000000Y-51500000D02*
X101500000Y-51500000D01*
X117000000Y-73000000D02*
X118000000Y-73000000D01*
X116000000Y-72000000D02*
X117000000Y-73000000D01*
X116000000Y-51540000D02*
X116000000Y-72000000D01*
X76000000Y-72920000D02*
X75920000Y-73000000D01*
X76000000Y-72000000D02*
X76000000Y-72920000D01*
X77000000Y-71000000D02*
X76000000Y-72000000D01*
X87500000Y-71000000D02*
X77000000Y-71000000D01*
X88500000Y-70000000D02*
X87500000Y-71000000D01*
X88500000Y-54000000D02*
X88500000Y-70000000D01*
%TO.N,+3V3*%
X78500000Y-54000000D02*
X78500000Y-52000000D01*
X73500000Y-54000000D02*
X73500000Y-52000000D01*
X73500000Y-52000000D02*
X78500000Y-52000000D01*
X83500000Y-53000000D02*
X83500000Y-54000000D01*
X82500000Y-52000000D02*
X83500000Y-53000000D01*
X78500000Y-52000000D02*
X82500000Y-52000000D01*
X45000000Y-72000000D02*
X44000000Y-73000000D01*
X45000000Y-55300000D02*
X45000000Y-72000000D01*
X101500000Y-47500000D02*
X101500000Y-47730000D01*
X102500000Y-46500000D02*
X101500000Y-47500000D01*
X116000000Y-46500000D02*
X102500000Y-46500000D01*
X116000000Y-46460000D02*
X116000000Y-46500000D01*
X46000000Y-52000000D02*
X73500000Y-52000000D01*
X45000000Y-53000000D02*
X46000000Y-52000000D01*
X45000000Y-55300000D02*
X45000000Y-53000000D01*
%TD*%
M02*
