%TF.GenerationSoftware,KiCad,Pcbnew,(5.1.9)-1*%
%TF.CreationDate,2021-05-15T15:20:44+02:00*%
%TF.ProjectId,esp8266temp,65737038-3236-4367-9465-6d702e6b6963,rev?*%
%TF.SameCoordinates,Original*%
%TF.FileFunction,Legend,Top*%
%TF.FilePolarity,Positive*%
%FSLAX46Y46*%
G04 Gerber Fmt 4.6, Leading zero omitted, Abs format (unit mm)*
G04 Created by KiCad (PCBNEW (5.1.9)-1) date 2021-05-15 15:20:44*
%MOMM*%
%LPD*%
G01*
G04 APERTURE LIST*
%ADD10C,0.250000*%
%ADD11C,0.120000*%
%ADD12C,0.150000*%
G04 APERTURE END LIST*
D10*
X66892857Y-38071428D02*
X66749999Y-38000000D01*
X66678571Y-37928571D01*
X66607142Y-37785714D01*
X66607142Y-37714285D01*
X66678571Y-37571428D01*
X66749999Y-37500000D01*
X66892857Y-37428571D01*
X67178571Y-37428571D01*
X67321428Y-37500000D01*
X67392857Y-37571428D01*
X67464285Y-37714285D01*
X67464285Y-37785714D01*
X67392857Y-37928571D01*
X67321428Y-38000000D01*
X67178571Y-38071428D01*
X66892857Y-38071428D01*
X66749999Y-38142857D01*
X66678571Y-38214285D01*
X66607142Y-38357142D01*
X66607142Y-38642857D01*
X66678571Y-38785714D01*
X66749999Y-38857142D01*
X66892857Y-38928571D01*
X67178571Y-38928571D01*
X67321428Y-38857142D01*
X67392857Y-38785714D01*
X67464285Y-38642857D01*
X67464285Y-38357142D01*
X67392857Y-38214285D01*
X67321428Y-38142857D01*
X67178571Y-38071428D01*
X68035714Y-37571428D02*
X68107142Y-37500000D01*
X68250000Y-37428571D01*
X68607142Y-37428571D01*
X68750000Y-37500000D01*
X68821428Y-37571428D01*
X68892857Y-37714285D01*
X68892857Y-37857142D01*
X68821428Y-38071428D01*
X67964285Y-38928571D01*
X68892857Y-38928571D01*
X70178571Y-37428571D02*
X69892857Y-37428571D01*
X69750000Y-37500000D01*
X69678571Y-37571428D01*
X69535714Y-37785714D01*
X69464285Y-38071428D01*
X69464285Y-38642857D01*
X69535714Y-38785714D01*
X69607142Y-38857142D01*
X69750000Y-38928571D01*
X70035714Y-38928571D01*
X70178571Y-38857142D01*
X70250000Y-38785714D01*
X70321428Y-38642857D01*
X70321428Y-38285714D01*
X70250000Y-38142857D01*
X70178571Y-38071428D01*
X70035714Y-38000000D01*
X69750000Y-38000000D01*
X69607142Y-38071428D01*
X69535714Y-38142857D01*
X69464285Y-38285714D01*
X71607142Y-37428571D02*
X71321428Y-37428571D01*
X71178571Y-37500000D01*
X71107142Y-37571428D01*
X70964285Y-37785714D01*
X70892857Y-38071428D01*
X70892857Y-38642857D01*
X70964285Y-38785714D01*
X71035714Y-38857142D01*
X71178571Y-38928571D01*
X71464285Y-38928571D01*
X71607142Y-38857142D01*
X71678571Y-38785714D01*
X71750000Y-38642857D01*
X71750000Y-38285714D01*
X71678571Y-38142857D01*
X71607142Y-38071428D01*
X71464285Y-38000000D01*
X71178571Y-38000000D01*
X71035714Y-38071428D01*
X70964285Y-38142857D01*
X70892857Y-38285714D01*
X73321428Y-37428571D02*
X74178571Y-37428571D01*
X73750000Y-38928571D02*
X73750000Y-37428571D01*
X75250000Y-38857142D02*
X75107142Y-38928571D01*
X74821428Y-38928571D01*
X74678571Y-38857142D01*
X74607142Y-38714285D01*
X74607142Y-38142857D01*
X74678571Y-38000000D01*
X74821428Y-37928571D01*
X75107142Y-37928571D01*
X75250000Y-38000000D01*
X75321428Y-38142857D01*
X75321428Y-38285714D01*
X74607142Y-38428571D01*
X75964285Y-38928571D02*
X75964285Y-37928571D01*
X75964285Y-38071428D02*
X76035714Y-38000000D01*
X76178571Y-37928571D01*
X76392857Y-37928571D01*
X76535714Y-38000000D01*
X76607142Y-38142857D01*
X76607142Y-38928571D01*
X76607142Y-38142857D02*
X76678571Y-38000000D01*
X76821428Y-37928571D01*
X77035714Y-37928571D01*
X77178571Y-38000000D01*
X77250000Y-38142857D01*
X77250000Y-38928571D01*
X77964285Y-37928571D02*
X77964285Y-39428571D01*
X77964285Y-38000000D02*
X78107142Y-37928571D01*
X78392857Y-37928571D01*
X78535714Y-38000000D01*
X78607142Y-38071428D01*
X78678571Y-38214285D01*
X78678571Y-38642857D01*
X78607142Y-38785714D01*
X78535714Y-38857142D01*
X78392857Y-38928571D01*
X78107142Y-38928571D01*
X77964285Y-38857142D01*
X79892857Y-38857142D02*
X79750000Y-38928571D01*
X79464285Y-38928571D01*
X79321428Y-38857142D01*
X79250000Y-38714285D01*
X79250000Y-38142857D01*
X79321428Y-38000000D01*
X79464285Y-37928571D01*
X79750000Y-37928571D01*
X79892857Y-38000000D01*
X79964285Y-38142857D01*
X79964285Y-38285714D01*
X79250000Y-38428571D01*
X80607142Y-38928571D02*
X80607142Y-37928571D01*
X80607142Y-38214285D02*
X80678571Y-38071428D01*
X80750000Y-38000000D01*
X80892857Y-37928571D01*
X81035714Y-37928571D01*
X82178571Y-38928571D02*
X82178571Y-38142857D01*
X82107142Y-38000000D01*
X81964285Y-37928571D01*
X81678571Y-37928571D01*
X81535714Y-38000000D01*
X82178571Y-38857142D02*
X82035714Y-38928571D01*
X81678571Y-38928571D01*
X81535714Y-38857142D01*
X81464285Y-38714285D01*
X81464285Y-38571428D01*
X81535714Y-38428571D01*
X81678571Y-38357142D01*
X82035714Y-38357142D01*
X82178571Y-38285714D01*
X82678571Y-37928571D02*
X83250000Y-37928571D01*
X82892857Y-37428571D02*
X82892857Y-38714285D01*
X82964285Y-38857142D01*
X83107142Y-38928571D01*
X83250000Y-38928571D01*
X84392857Y-37928571D02*
X84392857Y-38928571D01*
X83750000Y-37928571D02*
X83750000Y-38714285D01*
X83821428Y-38857142D01*
X83964285Y-38928571D01*
X84178571Y-38928571D01*
X84321428Y-38857142D01*
X84392857Y-38785714D01*
X85107142Y-38928571D02*
X85107142Y-37928571D01*
X85107142Y-38214285D02*
X85178571Y-38071428D01*
X85250000Y-38000000D01*
X85392857Y-37928571D01*
X85535714Y-37928571D01*
X86607142Y-38857142D02*
X86464285Y-38928571D01*
X86178571Y-38928571D01*
X86035714Y-38857142D01*
X85964285Y-38714285D01*
X85964285Y-38142857D01*
X86035714Y-38000000D01*
X86178571Y-37928571D01*
X86464285Y-37928571D01*
X86607142Y-38000000D01*
X86678571Y-38142857D01*
X86678571Y-38285714D01*
X85964285Y-38428571D01*
X88392857Y-38857142D02*
X88607142Y-38928571D01*
X88964285Y-38928571D01*
X89107142Y-38857142D01*
X89178571Y-38785714D01*
X89250000Y-38642857D01*
X89250000Y-38500000D01*
X89178571Y-38357142D01*
X89107142Y-38285714D01*
X88964285Y-38214285D01*
X88678571Y-38142857D01*
X88535714Y-38071428D01*
X88464285Y-38000000D01*
X88392857Y-37857142D01*
X88392857Y-37714285D01*
X88464285Y-37571428D01*
X88535714Y-37500000D01*
X88678571Y-37428571D01*
X89035714Y-37428571D01*
X89250000Y-37500000D01*
X90464285Y-38857142D02*
X90321428Y-38928571D01*
X90035714Y-38928571D01*
X89892857Y-38857142D01*
X89821428Y-38714285D01*
X89821428Y-38142857D01*
X89892857Y-38000000D01*
X90035714Y-37928571D01*
X90321428Y-37928571D01*
X90464285Y-38000000D01*
X90535714Y-38142857D01*
X90535714Y-38285714D01*
X89821428Y-38428571D01*
X91178571Y-37928571D02*
X91178571Y-38928571D01*
X91178571Y-38071428D02*
X91250000Y-38000000D01*
X91392857Y-37928571D01*
X91607142Y-37928571D01*
X91750000Y-38000000D01*
X91821428Y-38142857D01*
X91821428Y-38928571D01*
X92464285Y-38857142D02*
X92607142Y-38928571D01*
X92892857Y-38928571D01*
X93035714Y-38857142D01*
X93107142Y-38714285D01*
X93107142Y-38642857D01*
X93035714Y-38500000D01*
X92892857Y-38428571D01*
X92678571Y-38428571D01*
X92535714Y-38357142D01*
X92464285Y-38214285D01*
X92464285Y-38142857D01*
X92535714Y-38000000D01*
X92678571Y-37928571D01*
X92892857Y-37928571D01*
X93035714Y-38000000D01*
X93964285Y-38928571D02*
X93821428Y-38857142D01*
X93750000Y-38785714D01*
X93678571Y-38642857D01*
X93678571Y-38214285D01*
X93750000Y-38071428D01*
X93821428Y-38000000D01*
X93964285Y-37928571D01*
X94178571Y-37928571D01*
X94321428Y-38000000D01*
X94392857Y-38071428D01*
X94464285Y-38214285D01*
X94464285Y-38642857D01*
X94392857Y-38785714D01*
X94321428Y-38857142D01*
X94178571Y-38928571D01*
X93964285Y-38928571D01*
X95107142Y-38928571D02*
X95107142Y-37928571D01*
X95107142Y-38214285D02*
X95178571Y-38071428D01*
X95250000Y-38000000D01*
X95392857Y-37928571D01*
X95535714Y-37928571D01*
X77892857Y-41428571D02*
X77392857Y-40714285D01*
X77035714Y-41428571D02*
X77035714Y-39928571D01*
X77607142Y-39928571D01*
X77750000Y-40000000D01*
X77821428Y-40071428D01*
X77892857Y-40214285D01*
X77892857Y-40428571D01*
X77821428Y-40571428D01*
X77750000Y-40642857D01*
X77607142Y-40714285D01*
X77035714Y-40714285D01*
X79107142Y-41357142D02*
X78964285Y-41428571D01*
X78678571Y-41428571D01*
X78535714Y-41357142D01*
X78464285Y-41214285D01*
X78464285Y-40642857D01*
X78535714Y-40500000D01*
X78678571Y-40428571D01*
X78964285Y-40428571D01*
X79107142Y-40500000D01*
X79178571Y-40642857D01*
X79178571Y-40785714D01*
X78464285Y-40928571D01*
X79678571Y-40428571D02*
X80035714Y-41428571D01*
X80392857Y-40428571D01*
X82892857Y-41428571D02*
X82035714Y-41428571D01*
X82464285Y-41428571D02*
X82464285Y-39928571D01*
X82321428Y-40142857D01*
X82178571Y-40285714D01*
X82035714Y-40357142D01*
X83535714Y-41285714D02*
X83607142Y-41357142D01*
X83535714Y-41428571D01*
X83464285Y-41357142D01*
X83535714Y-41285714D01*
X83535714Y-41428571D01*
X84178571Y-40071428D02*
X84250000Y-40000000D01*
X84392857Y-39928571D01*
X84750000Y-39928571D01*
X84892857Y-40000000D01*
X84964285Y-40071428D01*
X85035714Y-40214285D01*
X85035714Y-40357142D01*
X84964285Y-40571428D01*
X84107142Y-41428571D01*
X85035714Y-41428571D01*
D11*
%TO.C,U2*%
X58300000Y-42700000D02*
X57900000Y-42700000D01*
X58300000Y-55300000D02*
X57900000Y-55300000D01*
X58300000Y-42700000D02*
X58300000Y-55300000D01*
%TO.C,R3*%
X83500000Y-44880000D02*
X83500000Y-45650000D01*
X83500000Y-52960000D02*
X83500000Y-52190000D01*
X82130000Y-45650000D02*
X82130000Y-52190000D01*
X84870000Y-45650000D02*
X82130000Y-45650000D01*
X84870000Y-52190000D02*
X84870000Y-45650000D01*
X82130000Y-52190000D02*
X84870000Y-52190000D01*
%TO.C,U1*%
X103350000Y-50800000D02*
X103350000Y-47200000D01*
X103338478Y-47161522D02*
G75*
G03*
X98900000Y-49000000I-1838478J-1838478D01*
G01*
X103338478Y-50838478D02*
G75*
G02*
X98900000Y-49000000I-1838478J1838478D01*
G01*
%TO.C,R4*%
X88500000Y-52960000D02*
X88500000Y-52190000D01*
X88500000Y-44880000D02*
X88500000Y-45650000D01*
X89870000Y-52190000D02*
X89870000Y-45650000D01*
X87130000Y-52190000D02*
X89870000Y-52190000D01*
X87130000Y-45650000D02*
X87130000Y-52190000D01*
X89870000Y-45650000D02*
X87130000Y-45650000D01*
%TO.C,R2*%
X78500000Y-44880000D02*
X78500000Y-45650000D01*
X78500000Y-52960000D02*
X78500000Y-52190000D01*
X77130000Y-45650000D02*
X77130000Y-52190000D01*
X79870000Y-45650000D02*
X77130000Y-45650000D01*
X79870000Y-52190000D02*
X79870000Y-45650000D01*
X77130000Y-52190000D02*
X79870000Y-52190000D01*
%TO.C,R1*%
X73500000Y-44880000D02*
X73500000Y-45650000D01*
X73500000Y-52960000D02*
X73500000Y-52190000D01*
X72130000Y-45650000D02*
X72130000Y-52190000D01*
X74870000Y-45650000D02*
X72130000Y-45650000D01*
X74870000Y-52190000D02*
X74870000Y-45650000D01*
X72130000Y-52190000D02*
X74870000Y-52190000D01*
%TO.C,J2*%
X117330000Y-52870000D02*
X116000000Y-52870000D01*
X117330000Y-51540000D02*
X117330000Y-52870000D01*
X117330000Y-50270000D02*
X114670000Y-50270000D01*
X114670000Y-50270000D02*
X114670000Y-45130000D01*
X117330000Y-50270000D02*
X117330000Y-45130000D01*
X117330000Y-45130000D02*
X114670000Y-45130000D01*
%TO.C,J1*%
X74590000Y-74330000D02*
X74590000Y-73000000D01*
X75920000Y-74330000D02*
X74590000Y-74330000D01*
X77190000Y-74330000D02*
X77190000Y-71670000D01*
X77190000Y-71670000D02*
X87410000Y-71670000D01*
X77190000Y-74330000D02*
X87410000Y-74330000D01*
X87410000Y-74330000D02*
X87410000Y-71670000D01*
%TO.C,BT1*%
X41000000Y-88000000D02*
X41000000Y-58000000D01*
X121000000Y-88000000D02*
X41000000Y-88000000D01*
X121000000Y-58000000D02*
X121000000Y-88000000D01*
X41000000Y-58000000D02*
X121000000Y-58000000D01*
%TO.C,U2*%
D12*
X59238095Y-53952380D02*
X59238095Y-54761904D01*
X59285714Y-54857142D01*
X59333333Y-54904761D01*
X59428571Y-54952380D01*
X59619047Y-54952380D01*
X59714285Y-54904761D01*
X59761904Y-54857142D01*
X59809523Y-54761904D01*
X59809523Y-53952380D01*
X60238095Y-54047619D02*
X60285714Y-54000000D01*
X60380952Y-53952380D01*
X60619047Y-53952380D01*
X60714285Y-54000000D01*
X60761904Y-54047619D01*
X60809523Y-54142857D01*
X60809523Y-54238095D01*
X60761904Y-54380952D01*
X60190476Y-54952380D01*
X60809523Y-54952380D01*
%TO.C,R3*%
X83333333Y-56452380D02*
X83000000Y-55976190D01*
X82761904Y-56452380D02*
X82761904Y-55452380D01*
X83142857Y-55452380D01*
X83238095Y-55500000D01*
X83285714Y-55547619D01*
X83333333Y-55642857D01*
X83333333Y-55785714D01*
X83285714Y-55880952D01*
X83238095Y-55928571D01*
X83142857Y-55976190D01*
X82761904Y-55976190D01*
X83666666Y-55452380D02*
X84285714Y-55452380D01*
X83952380Y-55833333D01*
X84095238Y-55833333D01*
X84190476Y-55880952D01*
X84238095Y-55928571D01*
X84285714Y-56023809D01*
X84285714Y-56261904D01*
X84238095Y-56357142D01*
X84190476Y-56404761D01*
X84095238Y-56452380D01*
X83809523Y-56452380D01*
X83714285Y-56404761D01*
X83666666Y-56357142D01*
%TO.C,U1*%
X100738095Y-52452380D02*
X100738095Y-53261904D01*
X100785714Y-53357142D01*
X100833333Y-53404761D01*
X100928571Y-53452380D01*
X101119047Y-53452380D01*
X101214285Y-53404761D01*
X101261904Y-53357142D01*
X101309523Y-53261904D01*
X101309523Y-52452380D01*
X102309523Y-53452380D02*
X101738095Y-53452380D01*
X102023809Y-53452380D02*
X102023809Y-52452380D01*
X101928571Y-52595238D01*
X101833333Y-52690476D01*
X101738095Y-52738095D01*
%TO.C,R4*%
X88333333Y-56452380D02*
X88000000Y-55976190D01*
X87761904Y-56452380D02*
X87761904Y-55452380D01*
X88142857Y-55452380D01*
X88238095Y-55500000D01*
X88285714Y-55547619D01*
X88333333Y-55642857D01*
X88333333Y-55785714D01*
X88285714Y-55880952D01*
X88238095Y-55928571D01*
X88142857Y-55976190D01*
X87761904Y-55976190D01*
X89190476Y-55785714D02*
X89190476Y-56452380D01*
X88952380Y-55404761D02*
X88714285Y-56119047D01*
X89333333Y-56119047D01*
%TO.C,R2*%
X78333333Y-56452380D02*
X78000000Y-55976190D01*
X77761904Y-56452380D02*
X77761904Y-55452380D01*
X78142857Y-55452380D01*
X78238095Y-55500000D01*
X78285714Y-55547619D01*
X78333333Y-55642857D01*
X78333333Y-55785714D01*
X78285714Y-55880952D01*
X78238095Y-55928571D01*
X78142857Y-55976190D01*
X77761904Y-55976190D01*
X78714285Y-55547619D02*
X78761904Y-55500000D01*
X78857142Y-55452380D01*
X79095238Y-55452380D01*
X79190476Y-55500000D01*
X79238095Y-55547619D01*
X79285714Y-55642857D01*
X79285714Y-55738095D01*
X79238095Y-55880952D01*
X78666666Y-56452380D01*
X79285714Y-56452380D01*
%TO.C,R1*%
X73333333Y-56452380D02*
X73000000Y-55976190D01*
X72761904Y-56452380D02*
X72761904Y-55452380D01*
X73142857Y-55452380D01*
X73238095Y-55500000D01*
X73285714Y-55547619D01*
X73333333Y-55642857D01*
X73333333Y-55785714D01*
X73285714Y-55880952D01*
X73238095Y-55928571D01*
X73142857Y-55976190D01*
X72761904Y-55976190D01*
X74285714Y-56452380D02*
X73714285Y-56452380D01*
X74000000Y-56452380D02*
X74000000Y-55452380D01*
X73904761Y-55595238D01*
X73809523Y-55690476D01*
X73714285Y-55738095D01*
%TO.C,J2*%
X115666666Y-53452380D02*
X115666666Y-54166666D01*
X115619047Y-54309523D01*
X115523809Y-54404761D01*
X115380952Y-54452380D01*
X115285714Y-54452380D01*
X116095238Y-53547619D02*
X116142857Y-53500000D01*
X116238095Y-53452380D01*
X116476190Y-53452380D01*
X116571428Y-53500000D01*
X116619047Y-53547619D01*
X116666666Y-53642857D01*
X116666666Y-53738095D01*
X116619047Y-53880952D01*
X116047619Y-54452380D01*
X116666666Y-54452380D01*
%TO.C,J1*%
X73166666Y-72452380D02*
X73166666Y-73166666D01*
X73119047Y-73309523D01*
X73023809Y-73404761D01*
X72880952Y-73452380D01*
X72785714Y-73452380D01*
X74166666Y-73452380D02*
X73595238Y-73452380D01*
X73880952Y-73452380D02*
X73880952Y-72452380D01*
X73785714Y-72595238D01*
X73690476Y-72690476D01*
X73595238Y-72738095D01*
%TO.C,BT1*%
X118714285Y-56928571D02*
X118857142Y-56976190D01*
X118904761Y-57023809D01*
X118952380Y-57119047D01*
X118952380Y-57261904D01*
X118904761Y-57357142D01*
X118857142Y-57404761D01*
X118761904Y-57452380D01*
X118380952Y-57452380D01*
X118380952Y-56452380D01*
X118714285Y-56452380D01*
X118809523Y-56500000D01*
X118857142Y-56547619D01*
X118904761Y-56642857D01*
X118904761Y-56738095D01*
X118857142Y-56833333D01*
X118809523Y-56880952D01*
X118714285Y-56928571D01*
X118380952Y-56928571D01*
X119238095Y-56452380D02*
X119809523Y-56452380D01*
X119523809Y-57452380D02*
X119523809Y-56452380D01*
X120666666Y-57452380D02*
X120095238Y-57452380D01*
X120380952Y-57452380D02*
X120380952Y-56452380D01*
X120285714Y-56595238D01*
X120190476Y-56690476D01*
X120095238Y-56738095D01*
X117619047Y-70571428D02*
X118380952Y-70571428D01*
X43619047Y-70571428D02*
X44380952Y-70571428D01*
X44000000Y-70952380D02*
X44000000Y-70190476D01*
%TD*%
M02*
